<?xml version="1.0" encoding="UTF-8"?> <svg xmlns="http://www.w3.org/2000/svg" xmlns:xlink="http://www.w3.org/1999/xlink" viewBox="0 0 696.9 365.18"><defs><style>.cls-1{fill:url(#linear-gradient);}.cls-2{fill:url(#linear-gradient-2);}.cls-3{fill:url(#linear-gradient-3);}.cls-4{fill:url(#linear-gradient-4);}.cls-5{fill:url(#linear-gradient-5);}.cls-6{fill:url(#linear-gradient-6);}.cls-10,.cls-7{fill:#8c753b;}.cls-8{fill:#baa360;}.cls-10,.cls-8{fill-rule:evenodd;}.cls-9{mask:url(#mask);}.cls-11{mask:url(#mask-2);}.cls-12{mask:url(#mask-3);}.cls-13{mask:url(#mask-4);}.cls-14{mask:url(#mask-5);}.cls-15{mask:url(#mask-6);}</style><linearGradient id="linear-gradient" x1="-24.68" y1="529.58" x2="-74.89" y2="573.81" gradientTransform="translate(364.3 -565.97)" gradientUnits="userSpaceOnUse"><stop offset="0" stop-color="#fff"></stop><stop offset="1"></stop></linearGradient><linearGradient id="linear-gradient-2" x1="-215.68" y1="575.58" x2="-173.83" y2="626.99" gradientTransform="translate(444.29 -486.43)" xlink:href="#linear-gradient"></linearGradient><linearGradient id="linear-gradient-3" x1="-249.04" y1="662.73" x2="-225.88" y2="688.28" gradientTransform="translate(348.13 -518.37)" xlink:href="#linear-gradient"></linearGradient><linearGradient id="linear-gradient-4" x1="-202.27" y1="500.86" x2="-159.24" y2="553.46" gradientTransform="translate(628.52 -484.76)" xlink:href="#linear-gradient"></linearGradient><linearGradient id="linear-gradient-5" x1="-159.4" y1="624.47" x2="-200.42" y2="671.7" gradientTransform="translate(726.25 -589.95)" xlink:href="#linear-gradient"></linearGradient><linearGradient id="linear-gradient-6" x1="-224.63" y1="578.42" x2="-224.63" y2="676.53" gradientTransform="translate(720.73 -518.99)" xlink:href="#linear-gradient"></linearGradient><mask id="mask" x="108.35" y="-18.28" width="251.82" height="149.38" maskUnits="userSpaceOnUse"><rect class="cls-1" x="108.35" y="-18.28" width="251.82" height="149.38"></rect></mask><mask id="mask-2" x="188.34" y="114.54" width="200.37" height="96.44" maskUnits="userSpaceOnUse"><rect class="cls-2" x="188.34" y="114.54" width="200.37" height="96.44"></rect></mask><mask id="mask-3" x="92.19" y="154.48" width="54.41" height="24.56" maskUnits="userSpaceOnUse"><rect class="cls-3" x="92.19" y="154.48" width="54.41" height="24.56"></rect></mask><mask id="mask-4" x="372.57" y="60.86" width="307.66" height="151.78" maskUnits="userSpaceOnUse"><rect class="cls-4" x="372.57" y="64.42" width="307.66" height="148.23"></rect></mask><mask id="mask-5" x="470.31" y="55.11" width="111.86" height="52.35" maskUnits="userSpaceOnUse"><rect class="cls-5" x="470.31" y="55.11" width="111.86" height="52.35"></rect></mask><mask id="mask-6" x="464.79" y="119.27" width="62.63" height="59.15" maskUnits="userSpaceOnUse"><rect class="cls-6" x="464.79" y="119.27" width="62.63" height="59.15"></rect></mask></defs><g id="Layer_2" data-name="Layer 2"><g id="texto_curvas" data-name="texto curvas"><path class="cls-7" d="M262.17,353.74c0-6.85,4.1-11.41,10.26-11.41a9.6,9.6,0,0,1,9.87,8.39h-2.59a7.22,7.22,0,0,0-7.28-6.13c-4.66,0-7.76,3.66-7.76,9.15s3.1,9.18,7.76,9.18a7.21,7.21,0,0,0,7.28-6.13h2.59a9.6,9.6,0,0,1-9.87,8.39C266.27,365.18,262.17,360.6,262.17,353.74Z"></path><path class="cls-7" d="M284.55,353.74c0-6.85,4.11-11.41,10.27-11.41s10.29,4.56,10.29,11.41-4.13,11.44-10.29,11.44S284.55,360.6,284.55,353.74Zm18,0c0-5.49-3.11-9.15-7.77-9.15s-7.76,3.66-7.76,9.15,3.1,9.18,7.76,9.18S302.59,359.24,302.59,353.74Z"></path><path class="cls-7" d="M307.35,356.79h2.51c0,4,2.46,6.21,6.88,6.21,3.54,0,5.65-1.49,5.65-4.25s-2-3.24-4.23-3.88l-4.07-1.13c-2.17-.61-5.62-1.66-5.62-5.65,0-3.8,3.34-5.76,7.5-5.76,4.49,0,8.21,2.25,8.38,6.78h-2.57c-.21-3.06-2.36-4.61-5.84-4.61-3,0-4.95,1.21-4.95,3.49s2,2.88,4,3.43l4.66,1.3c3.07.86,5.24,2.37,5.24,5.82,0,4.15-3.22,6.64-8.17,6.64C311.41,365.18,307.35,362.29,307.35,356.79Z"></path><path class="cls-7" d="M333.36,364.93V344.85h-7.63v-2.27h17.78v2.27h-7.63v20.08Z"></path><path class="cls-7" d="M352.58,342.58l7.76,21.85v.5h-2.51L356,359.69h-8.23l.78-2.26h6.67L351,345.2h-.31l-6.86,19.73h-2.49v-.5l7.76-21.85Z"></path><path class="cls-7" d="M380.38,355.05l5.74,9.33v.55h-2.63l-5.76-9.69h-2.2V353h1.26c2.09,0,3.28-.18,4.27-1a3.74,3.74,0,0,0,1.25-3.08,3.68,3.68,0,0,0-1.25-3.07c-1-.81-2.33-1-4.58-1h-3.06v20.08H370.9V342.58h6c2.63,0,4.46.37,5.71,1.31a6.79,6.79,0,0,1,0,10.06,5.71,5.71,0,0,1-2.2,1Z"></path><path class="cls-7" d="M388.87,364.93V342.58h2.53v22.35Z"></path><path class="cls-7" d="M394.57,353.74c0-6.85,4.11-11.41,10.27-11.41a9.6,9.6,0,0,1,9.86,8.39h-2.58a7.23,7.23,0,0,0-7.28-6.13c-4.66,0-7.76,3.66-7.76,9.15s3.1,9.18,7.76,9.18a7.21,7.21,0,0,0,7.28-6.13h2.58a9.6,9.6,0,0,1-9.86,8.39C398.68,365.18,394.57,360.6,394.57,353.74Z"></path><path class="cls-7" d="M427,342.58l7.75,21.85v.5h-2.5l-1.82-5.24h-8.24l.79-2.26h6.67L425.4,345.2h-.3l-6.86,19.73h-2.49v-.5l7.75-21.85Z"></path><path class="cls-7" d="M101.72,322V284.77h4.2v33.42h16.79V322Z"></path><path class="cls-7" d="M124.88,309.66V284.77h4.17v24.65c0,5.95,2.53,9.19,9.3,9.19s9.3-3.42,9.3-9.19V284.77h4.17v24.89c0,8.37-4.28,12.73-13.47,12.73S124.88,317.9,124.88,309.66Z"></path><path class="cls-7" d="M155.53,322v-.82L168,303.26l-12.25-17.67v-.82h4.49L170.65,300h.45l10.49-15.22h4.49v.82l-12.24,17.67,12.43,17.88V322h-4.49l-10.71-15.49h-.39L160.05,322Z"></path><path class="cls-7" d="M190,309.66V284.77h4.17v24.65c0,5.95,2.53,9.19,9.3,9.19s9.3-3.42,9.3-9.19V284.77h4.17v24.89c0,8.37-4.28,12.73-13.47,12.73S190,317.9,190,309.66Z"></path><path class="cls-7" d="M239.07,305.52l9.56,15.54v.9h-4.38l-9.59-16.12c-.45,0-.93,0-1.43,0H231v-3.77h2.1c3.48,0,5.48-.29,7.12-1.65a6.2,6.2,0,0,0,2.07-5.12c0-2.58-.87-4.15-2.07-5.1-1.67-1.36-3.88-1.68-7.62-1.68h-5.1V322h-4.2V284.77h9.94c4.38,0,7.43.61,9.51,2.18,2.36,1.72,3.72,4.62,3.72,8.37s-1.36,6.66-3.72,8.36a9.32,9.32,0,0,1-3.67,1.65Z"></path><path class="cls-7" d="M262.31,322V308.07l-13.63-22.48v-.82h4.39l11.18,18.67h.32l11.18-18.67h4.39v.82l-13.63,22.48V322Z"></path><path class="cls-7" d="M313.18,305.52l9.56,15.54v.9h-4.38l-9.59-16.12c-.46,0-.93,0-1.44,0H305.1v-3.77h2.1c3.48,0,5.47-.29,7.12-1.65a6.2,6.2,0,0,0,2.07-5.12c0-2.58-.88-4.15-2.07-5.1-1.67-1.36-3.88-1.68-7.63-1.68h-5.1V322H297.4V284.77h9.93c4.39,0,7.44.61,9.51,2.18,2.37,1.72,3.72,4.62,3.72,8.37s-1.35,6.66-3.72,8.36a9.21,9.21,0,0,1-3.66,1.65Z"></path><path class="cls-7" d="M327.3,322V284.77h23.33v3.77H331.5v29.65h20.22V322ZM335,304.67v-3.75h13.66v3.75Z"></path><path class="cls-7" d="M372.49,284.77l12.91,36.37V322h-4.17l-3-8.71H364.49l1.3-3.77H376.9l-7.07-20.35h-.5L357.9,322h-4.14v-.82l12.91-36.37Z"></path><path class="cls-7" d="M389.38,322V284.77h4.19v33.42h16.79V322Z"></path><path class="cls-7" d="M427.57,322V284.77H450.9v3.77H431.77v29.65H452V322Zm7.73-17.29v-3.75H449v3.75Z"></path><path class="cls-7" d="M454.21,308.41h4.17c0,6.64,4.09,10.34,11.45,10.34,5.9,0,9.41-2.47,9.41-7.07,0-4.41-3.3-5.39-7-6.45l-6.78-1.89c-3.61-1-9.35-2.76-9.35-9.4,0-6.33,5.55-9.6,12.49-9.6,7.46,0,13.65,3.75,13.95,11.3h-4.28c-.35-5.11-3.93-7.68-9.73-7.68-5,0-8.23,2-8.23,5.81s3.29,4.79,6.69,5.72l7.76,2.15c5.1,1.43,8.72,4,8.72,9.7,0,6.9-5.37,11.05-13.61,11.05C461,322.39,454.21,317.58,454.21,308.41Z"></path><path class="cls-7" d="M497.48,322V288.54h-12.7v-3.77h29.6v3.77h-12.7V322Z"></path><path class="cls-7" d="M529.46,284.77l12.91,36.37V322H538.2l-3-8.71h-13.7l1.3-3.77h11.1l-7.06-20.35h-.51L514.88,322h-4.15v-.82l12.92-36.37Z"></path><path class="cls-7" d="M551.4,322V288.54H538.7v-3.77h29.6v3.77H555.6V322Z"></path><path class="cls-7" d="M572,322V284.77h23.32v3.77H576.16v29.65h20.21V322Zm7.73-17.29v-3.75h13.65v3.75Z"></path><polygon class="cls-7" points="73.51 308.42 0 304.42 73.51 300.42 73.51 308.42"></polygon><polygon class="cls-7" points="623.39 308.42 696.9 304.42 623.39 300.42 623.39 308.42"></polygon></g><g id="plano"><polygon class="cls-8" points="317.81 120.06 324.56 120.06 372.33 80.13 368.31 76.44 317.81 120.06"></polygon><polygon class="cls-8" points="35.13 220.72 35.13 210.56 88.6 164.96 84.87 161.23 17.72 220.72 35.13 220.72"></polygon><polygon class="cls-8" points="302.31 124.44 180.2 124.21 154.51 146.95 83.92 146.95 0 220.72 14.04 220.72 84.92 158.05 113.03 183.66 73.66 220.72 86.31 220.72 180.2 134.53 274.21 220.44 409.32 220.44 302.31 124.44 302.31 124.44"></polygon><polygon class="cls-8" points="90.43 220.72 112.06 220.72 112.06 207.04 184.57 142.19 180.19 138.22 90.43 220.72"></polygon><polygon class="cls-8" points="309.99 120.06 368.73 68.98 533.83 219.41 696.55 219.41 632.06 158.86 632.06 188.56 531.86 188.68 461.27 123.55 460.75 112.58 497.22 112.59 529.56 112.66 586.91 58.55 656.53 120.06 669.74 120.06 587.85 47.85 521.62 54.08 430.48 55.46 367.83 0 286.25 0 244.35 1.44 89.76 137.57 152.01 137.57 177.7 114.84 250.57 114.84 367.83 10.32 418.5 55.64 411.84 55.75 367.82 16.73 364.53 19.57 405.44 55.84 368.73 56.4 299.33 120.06 309.99 120.06"></polygon><polygon class="cls-8" points="582.37 69.59 586.9 65.16 650.38 120.1 629.52 120.1 629.52 109.29 582.37 69.59"></polygon></g><g id="sombras"><g class="cls-9"><polygon class="cls-10" points="293.02 7.87 360.18 7.87 247.44 108.36 174.58 108.36 148.9 131.1 108.35 131.1 246.37 8.59 293.02 7.87"></polygon></g><g class="cls-11"><polygon class="cls-10" points="261.68 131.74 188.34 131.74 275.94 210.98 388.71 210.98 296.63 131.64 261.68 131.74"></polygon></g><g class="cls-12"><polygon class="cls-10" points="92.19 154.47 119.14 179.03 146.6 154.47 92.19 154.47"></polygon></g><g class="cls-13"><polygon class="cls-10" points="372.57 64.42 535.92 212.64 680.23 212.64 520.71 60.86 372.57 64.42"></polygon></g><g class="cls-14"><polygon class="cls-10" points="526.69 107.46 470.31 107.33 520.71 60.86 582.16 55.11 526.69 107.46"></polygon></g><g class="cls-15"><polygon class="cls-8" points="464.79 119.27 527.41 119.27 527.41 178.42 464.79 122.75 464.79 119.27"></polygon></g></g></g></svg> 